<svg xmlns="http://www.w3.org/2000/svg" viewBox="0 0 640 360" fill="none">
  <defs>
    <linearGradient id="bg" x1="0" y1="0" x2="640" y2="360" gradientUnits="userSpaceOnUse">
      <stop stop-color="#0c1220"/>
      <stop offset="1" stop-color="#141c30"/>
    </linearGradient>
    <linearGradient id="accent" x1="80" y1="40" x2="560" y2="320" gradientUnits="userSpaceOnUse">
      <stop stop-color="#38bdf8"/>
      <stop offset="0.5" stop-color="#818cf8"/>
      <stop offset="1" stop-color="#c084fc"/>
    </linearGradient>
    <linearGradient id="green" x1="0" y1="0" x2="1" y2="1">
      <stop stop-color="#34d399"/>
      <stop offset="1" stop-color="#10b981"/>
    </linearGradient>
    <linearGradient id="red" x1="0" y1="0" x2="1" y2="1">
      <stop stop-color="#f87171"/>
      <stop offset="1" stop-color="#ef4444"/>
    </linearGradient>
  </defs>
  <rect width="640" height="360" fill="url(#bg)"/>
  <rect x="24" y="24" width="592" height="312" rx="12" stroke="rgba(148,163,184,0.15)" stroke-width="1.5"/>
  <circle cx="48" cy="48" r="5" fill="#f87171"/>
  <circle cx="68" cy="48" r="5" fill="#fbbf24"/>
  <circle cx="88" cy="48" r="5" fill="#34d399"/>
  <text x="320" y="52" text-anchor="middle" font-family="JetBrains Mono, monospace" font-size="11" fill="#64748b">fake_news_classifier.py</text>

  <rect x="48" y="80" width="200" height="120" rx="8" fill="rgba(20,28,48,0.8)" stroke="rgba(148,163,184,0.12)"/>
  <rect x="64" y="96" width="120" height="8" rx="4" fill="rgba(148,163,184,0.3)"/>
  <rect x="64" y="112" width="168" height="6" rx="3" fill="rgba(148,163,184,0.15)"/>
  <rect x="64" y="124" width="150" height="6" rx="3" fill="rgba(148,163,184,0.15)"/>
  <rect x="64" y="136" width="160" height="6" rx="3" fill="rgba(148,163,184,0.15)"/>
  <rect x="64" y="160" width="72" height="24" rx="12" fill="url(#green)" opacity="0.9"/>
  <text x="100" y="176" text-anchor="middle" font-family="Inter, sans-serif" font-size="11" font-weight="600" fill="#fff">REAL</text>

  <rect x="272" y="80" width="200" height="120" rx="8" fill="rgba(20,28,48,0.8)" stroke="rgba(148,163,184,0.12)"/>
  <rect x="288" y="96" width="120" height="8" rx="4" fill="rgba(148,163,184,0.3)"/>
  <rect x="288" y="112" width="168" height="6" rx="3" fill="rgba(148,163,184,0.15)"/>
  <rect x="288" y="124" width="140" height="6" rx="3" fill="rgba(148,163,184,0.15)"/>
  <rect x="288" y="136" width="155" height="6" rx="3" fill="rgba(148,163,184,0.15)"/>
  <rect x="288" y="160" width="72" height="24" rx="12" fill="url(#red)" opacity="0.9"/>
  <text x="324" y="176" text-anchor="middle" font-family="Inter, sans-serif" font-size="11" font-weight="600" fill="#fff">FAKE</text>

  <g opacity="0.85">
    <circle cx="520" cy="110" r="14" fill="url(#accent)" opacity="0.3" stroke="url(#accent)" stroke-width="2"/>
    <circle cx="560" cy="150" r="14" fill="url(#accent)" opacity="0.3" stroke="url(#accent)" stroke-width="2"/>
    <circle cx="520" cy="190" r="14" fill="url(#accent)" opacity="0.3" stroke="url(#accent)" stroke-width="2"/>
    <circle cx="560" cy="230" r="14" fill="url(#accent)" opacity="0.3" stroke="url(#accent)" stroke-width="2"/>
    <circle cx="600" cy="170" r="16" fill="url(#accent)" opacity="0.5" stroke="url(#accent)" stroke-width="2"/>
    <line x1="534" y1="110" x2="546" y2="150" stroke="url(#accent)" stroke-width="1.5" opacity="0.5"/>
    <line x1="534" y1="190" x2="546" y2="150" stroke="url(#accent)" stroke-width="1.5" opacity="0.5"/>
    <line x1="534" y1="190" x2="546" y2="230" stroke="url(#accent)" stroke-width="1.5" opacity="0.5"/>
    <line x1="534" y1="110" x2="546" y2="230" stroke="url(#accent)" stroke-width="1.5" opacity="0.5"/>
    <line x1="574" y1="150" x2="584" y2="170" stroke="url(#accent)" stroke-width="1.5" opacity="0.5"/>
    <line x1="574" y1="230" x2="584" y2="170" stroke="url(#accent)" stroke-width="1.5" opacity="0.5"/>
  </g>

  <path d="M248 140 L268 140" stroke="url(#accent)" stroke-width="2" stroke-linecap="round"/>
  <path d="M472 140 L492 170" stroke="url(#accent)" stroke-width="2" stroke-linecap="round" opacity="0.6"/>

  <rect x="48" y="232" width="544" height="72" rx="8" fill="rgba(56,189,248,0.06)" stroke="rgba(56,189,248,0.15)"/>
  <text x="80" y="262" font-family="JetBrains Mono, monospace" font-size="10" fill="#64748b">Accuracy</text>
  <text x="80" y="286" font-family="Inter, sans-serif" font-size="22" font-weight="700" fill="url(#accent)">92.4%</text>
  <text x="220" y="262" font-family="JetBrains Mono, monospace" font-size="10" fill="#64748b">Model</text>
  <text x="220" y="286" font-family="Inter, sans-serif" font-size="14" font-weight="600" fill="#94a3b8">Naive Bayes + TF-IDF</text>
  <text x="420" y="262" font-family="JetBrains Mono, monospace" font-size="10" fill="#64748b">Dataset</text>
  <text x="420" y="286" font-family="Inter, sans-serif" font-size="14" font-weight="600" fill="#94a3b8">News Articles</text>
</svg>
